<?xml version="1.0" encoding="utf-8"?>
<!-- Generator: Adobe Illustrator 23.1.1, SVG Export Plug-In . SVG Version: 6.00 Build 0)  -->
<svg version="1.1" id="Capa_1" xmlns="http://www.w3.org/2000/svg" xmlns:xlink="http://www.w3.org/1999/xlink" x="0px" y="0px"
	 viewBox="0 0 104.32 85.59" style="enable-background:new 0 0 104.32 85.59;" xml:space="preserve">
<style type="text/css">
	.st0{fill:#DADADA;}
	.st1{fill:#DADADA;stroke:#DADADA;stroke-miterlimit:10;}
	.st2{fill:#DADADA;stroke:#DADADA;stroke-width:2;stroke-miterlimit:10;}
</style>
<g>
	<g>
		<path class="st0" d="M89.24,12.51V8.56c0-2.91-2.36-5.27-5.27-5.27H27.35c-2.91,0-5.27,2.36-5.27,5.27v2.63h-2.63
			c-2.18,0-3.95,1.77-3.95,3.95s1.77,3.95,3.95,3.95h2.63v52.67h-5.27c-0.73,0-1.32,0.59-1.32,1.32v3.95c0,2.91,2.36,5.27,5.27,5.27
			h47.41c11.63,0.01,21.06-9.41,21.07-21.03c0.01-6.4-2.9-12.46-7.9-16.46V13.82h6.58C88.65,13.82,89.24,13.23,89.24,12.51z
			 M18.13,15.14c0-0.73,0.59-1.32,1.32-1.32H55v2.63H19.45C18.72,16.46,18.13,15.87,18.13,15.14z M63.91,13.82l2.63,1.32l-2.63,1.32
			h-6.27v-2.63H63.91z M20.77,79.66c-1.45,0-2.63-1.18-2.63-2.63V74.4h33.62c1.72,2.14,3.84,3.93,6.24,5.27H20.77z M86.61,61.23
			c0,10.18-8.25,18.44-18.44,18.44s-18.44-8.25-18.44-18.44s8.25-18.44,18.44-18.44C78.35,42.8,86.6,51.05,86.61,61.23z
			 M68.17,40.16c-11.62-0.02-21.05,9.38-21.07,20.99c-0.01,3.73,0.98,7.39,2.85,10.61H24.72V19.09h39.51c0.2,0,0.41-0.05,0.59-0.14
			l5.27-2.63c0.65-0.32,0.92-1.12,0.59-1.77c-0.13-0.26-0.34-0.46-0.59-0.59l-5.27-2.63c-0.18-0.09-0.38-0.14-0.59-0.14H24.72V8.56
			c0-1.45,1.18-2.63,2.63-2.63h52.09c-0.47,0.8-0.73,1.71-0.73,2.63v34.46C75.51,41.14,71.87,40.16,68.17,40.16z M86.61,11.19h-5.27
			V8.56c0-1.45,1.18-2.63,2.63-2.63s2.63,1.18,2.63,2.63V11.19z"/>
		<rect x="31.3" y="23.04" class="st0" width="2.63" height="2.63"/>
		<rect x="36.57" y="23.04" class="st0" width="38.19" height="2.63"/>
		<rect x="28.67" y="28.31" class="st0" width="46.09" height="2.63"/>
		<rect x="28.67" y="33.58" class="st0" width="46.09" height="2.63"/>
		<rect x="28.67" y="38.84" class="st0" width="26.34" height="2.63"/>
		<rect x="28.67" y="65.18" class="st0" width="13.17" height="2.63"/>
		<rect x="83.97" y="19.09" class="st0" width="2.63" height="22.39"/>
		<rect x="16.82" y="24.36" class="st0" width="2.63" height="31.6"/>
		<rect x="16.82" y="58.6" class="st0" width="2.63" height="2.63"/>
	</g>
	<g>
		<polygon class="st0" points="3.86,35.63 3.86,39.05 0.44,39.05 0.44,41.95 3.86,41.95 3.86,45.38 6.77,45.38 6.77,41.95 
			10.19,41.95 10.19,39.05 6.77,39.05 6.77,35.63 		"/>
		<polygon class="st0" points="103.88,39.05 100.46,39.05 100.46,35.63 97.56,35.63 97.56,39.05 94.13,39.05 94.13,41.95 
			97.56,41.95 97.56,45.37 100.46,45.37 100.46,41.95 103.88,41.95 		"/>
		<rect x="94.39" y="78.92" class="st0" width="2.9" height="2.9"/>
		<rect x="94.39" y="73.11" class="st0" width="2.9" height="2.9"/>
		<rect x="94.39" y="67.31" class="st0" width="2.9" height="2.9"/>
	</g>
	<g>
		<rect x="11.45" y="1.14" class="st0" width="2.9" height="2.9"/>
		<rect x="11.45" y="6.95" class="st0" width="2.9" height="2.9"/>
		<rect x="11.45" y="12.76" class="st0" width="2.9" height="2.9"/>
	</g>
	<g transform="translate(0,-952.36218)">
		<path class="st0" d="M66.23,998.32c-4.44,0-8.72,3.45-8.72,8.33c0,3.08,1.2,5.04,2.31,6.6c1.11,1.57,2.05,2.72,2.05,4.52v4.02
			c0,1.14,0.94,2.01,2.01,2.01h4.69c1.07,0,2.01-0.87,2.01-2.01v-4.02c0-1.8,0.95-2.95,2.05-4.52c1.11-1.57,2.31-3.52,2.31-6.6
			C74.95,1001.77,70.67,998.32,66.23,998.32z M66.23,999.67c3.74,0,7.38,2.9,7.38,6.99c0,2.74-0.98,4.31-2.05,5.83
			c-0.96,1.36-2.05,2.71-2.26,4.62h-6.12c-0.21-1.91-1.3-3.26-2.26-4.62c-1.07-1.52-2.05-3.08-2.05-5.83
			C58.85,1002.56,62.49,999.67,66.23,999.67z M63.21,1018.44h6.04v1.34h-6.04V1018.44z M63.21,1021.13h6.04v0.67
			c0,0.4-0.32,0.67-0.67,0.67h-4.69c-0.35,0-0.67-0.27-0.67-0.67V1021.13z"/>
	</g>
</g>
</svg>
