<?xml version="1.0" encoding="utf-8"?>
<!-- Generator: Adobe Illustrator 23.1.1, SVG Export Plug-In . SVG Version: 6.00 Build 0)  -->
<svg version="1.1" id="Capa_1" xmlns="http://www.w3.org/2000/svg" xmlns:xlink="http://www.w3.org/1999/xlink" x="0px" y="0px"
	 viewBox="0 0 104.32 85.59" style="enable-background:new 0 0 104.32 85.59;" xml:space="preserve">
<style type="text/css">
	.st0{fill:#DADADA;}
	.st1{fill:#DADADA;stroke:#DADADA;stroke-miterlimit:10;}
	.st2{fill:#DADADA;stroke:#DADADA;stroke-width:2;stroke-miterlimit:10;}
</style>
<g>
	<g>
		<polygon class="st0" points="96.85,2.97 96.85,5.79 94.03,5.79 94.03,8.18 96.85,8.18 96.85,10.99 99.24,10.99 99.24,8.18 
			102.06,8.18 102.06,5.79 99.24,5.79 99.24,2.97 		"/>
		<rect x="81.56" y="8.27" class="st0" width="2.39" height="2.39"/>
		<rect x="81.56" y="17.83" class="st0" width="2.39" height="2.39"/>
		<rect x="81.56" y="13.05" class="st0" width="2.39" height="2.39"/>
		<polygon class="st0" points="102.06,77.41 99.24,77.41 99.24,74.59 96.85,74.59 96.85,77.41 94.03,77.41 94.03,79.8 96.85,79.8 
			96.85,82.62 99.24,82.62 99.24,79.8 102.06,79.8 		"/>
		<rect x="81.56" y="74.92" class="st0" width="2.39" height="2.39"/>
		<rect x="81.56" y="70.14" class="st0" width="2.39" height="2.39"/>
		<rect x="81.56" y="65.36" class="st0" width="2.39" height="2.39"/>
	</g>
	<g>
		<polygon class="st0" points="7.47,82.62 7.47,79.8 10.29,79.8 10.29,77.41 7.47,77.41 7.47,74.59 5.08,74.59 5.08,77.41 
			2.26,77.41 2.26,79.8 5.08,79.8 5.08,82.62 		"/>
		<rect x="20.37" y="74.92" class="st0" width="2.39" height="2.39"/>
		<rect x="20.37" y="65.36" class="st0" width="2.39" height="2.39"/>
		<rect x="20.37" y="70.14" class="st0" width="2.39" height="2.39"/>
		<polygon class="st0" points="2.26,8.18 5.08,8.18 5.08,10.99 7.47,10.99 7.47,8.18 10.29,8.18 10.29,5.79 7.47,5.79 7.47,2.97 
			5.08,2.97 5.08,5.79 2.26,5.79 		"/>
		<rect x="20.37" y="8.27" class="st0" width="2.39" height="2.39"/>
		<rect x="20.37" y="13.05" class="st0" width="2.39" height="2.39"/>
		<rect x="20.37" y="17.83" class="st0" width="2.39" height="2.39"/>
	</g>
	<g transform="translate(-390 -380)">
		<g>
			<g>
				<path class="st0" d="M473.65,420.28h-3.99c-0.16,0-0.28-0.12-0.3-0.27c-1.19-12.77-11.34-22.93-24.11-24.11
					c-0.15-0.01-0.27-0.14-0.27-0.3v-3.99c0-0.17-0.14-0.3-0.3-0.3h-3.85c-0.17,0-0.3,0.14-0.3,0.3v3.99c0,0.16-0.12,0.28-0.27,0.3
					c-12.77,1.18-22.93,11.34-24.11,24.11c-0.01,0.15-0.14,0.27-0.3,0.27h-3.99c-0.17,0-0.3,0.14-0.3,0.3v3.85
					c0,0.17,0.14,0.3,0.3,0.3h3.99c0.16,0,0.28,0.12,0.3,0.27c1.19,12.77,11.34,22.92,24.11,24.11c0.15,0.01,0.27,0.14,0.27,0.3
					v3.99c0,0.17,0.14,0.3,0.3,0.3h3.85c0.17,0,0.3-0.14,0.3-0.3v-3.99c0-0.16,0.12-0.28,0.27-0.3
					c12.77-1.19,22.93-11.34,24.11-24.11c0.01-0.15,0.14-0.27,0.3-0.27h3.99c0.17,0,0.3-0.14,0.3-0.3v-3.85
					C473.95,420.41,473.82,420.28,473.65,420.28z M444.97,444.34v-3.7c0-0.17-0.14-0.3-0.3-0.3h-3.85c-0.17,0-0.3,0.14-0.3,0.3v3.7
					c0,0.18-0.16,0.33-0.34,0.31c-10.26-1.18-18.39-9.32-19.57-19.57c-0.02-0.18,0.12-0.34,0.31-0.34h3.7c0.17,0,0.3-0.14,0.3-0.3
					v-3.85c0-0.17-0.14-0.3-0.3-0.3h-3.7c-0.18,0-0.33-0.16-0.31-0.34c1.18-10.26,9.32-18.39,19.57-19.57
					c0.18-0.02,0.34,0.12,0.34,0.31v3.7c0,0.17,0.14,0.3,0.3,0.3h3.85c0.17,0,0.3-0.14,0.3-0.3v-3.7c0-0.18,0.16-0.33,0.34-0.31
					c10.26,1.18,18.39,9.32,19.57,19.57c0.02,0.18-0.12,0.34-0.31,0.34h-3.7c-0.17,0-0.3,0.14-0.3,0.3v3.85c0,0.17,0.14,0.3,0.3,0.3
					h3.7c0.18,0,0.33,0.16,0.31,0.34c-1.18,10.26-9.31,18.39-19.57,19.57C445.13,444.67,444.97,444.52,444.97,444.34z"/>
			</g>
			<polygon class="st0" points="451.66,420.28 444.97,420.28 444.97,413.59 440.51,413.59 440.51,420.28 433.82,420.28 
				433.82,424.73 440.51,424.73 440.51,431.42 444.97,431.42 444.97,424.73 451.66,424.73 			"/>
		</g>
	</g>
</g>
</svg>
