<?xml version="1.0" encoding="utf-8"?>
<!-- Generator: Adobe Illustrator 23.1.1, SVG Export Plug-In . SVG Version: 6.00 Build 0)  -->
<svg version="1.1" id="Capa_1" xmlns="http://www.w3.org/2000/svg" xmlns:xlink="http://www.w3.org/1999/xlink" x="0px" y="0px"
	 viewBox="0 0 104.32 85.59" style="enable-background:new 0 0 104.32 85.59;" xml:space="preserve">
<style type="text/css">
	.st0{fill:#DADADA;}
	.st1{fill:#DADADA;stroke:#DADADA;stroke-miterlimit:10;}
	.st2{fill:#DADADA;stroke:#DADADA;stroke-width:2;stroke-miterlimit:10;}
</style>
<g>
	<path class="st2" d="M58.38,54.7L58.38,54.7l0.01-1.75c5.54-2.38,9.56-7.67,10.07-14h0.06v-3.36c2.48-0.18,4.45-2.25,4.45-4.78
		c0-2.53-1.97-4.6-4.45-4.78v-5.31c0.67-0.01,1.35-0.18,2-0.51c1.26-0.65,2.17-1.81,2.44-3.1c0.49-2.33-0.23-3.67-0.91-4.38
		c-0.73-0.75-1.77-1.16-2.94-1.16c1.23-1.77,1.6-3.13,1.64-5.11c0.06-3.2-4.7-3.38-4.91-3.39H49.84c-3.5,0-5.61,1.74-6.75,3.62
		c-0.59-0.19-1.21-0.3-1.85-0.3c-3.28,0-5.95,2.67-5.95,5.95c0,0.34,0.03,0.67,0.09,0.99c-1.65,0.02-2.98,1.37-2.98,3.02
		c0,1.56,1.19,2.83,2.7,2.99v6.69c-2.49,0.18-4.45,2.25-4.45,4.78c0,2.53,1.97,4.6,4.45,4.78v3.02l0.03,0.34h0.02
		c0.5,6.31,4.51,11.59,10.03,13.98v1.78c-12.57,3.02-21.62,14.46-21.62,27.45v0.34h56.48v-0.34C80.04,69.04,71.13,57.74,58.38,54.7z
		 M35.1,34.9c-2.11-0.18-3.77-1.94-3.77-4.09c0-2.15,1.66-3.92,3.77-4.09V34.9z M35.1,18.65c-1.13-0.16-2.01-1.12-2.01-2.3
		c0-1.18,0.88-2.14,2.01-2.3V18.65z M72.27,30.81c0,2.15-1.66,3.91-3.76,4.09v-8.18C70.61,26.9,72.27,28.66,72.27,30.81z
		 M71.54,13.21c0.82,0.85,1.07,2.15,0.73,3.76c-0.23,1.09-1.01,2.07-2.08,2.63c-1.01,0.52-2.11,0.58-3.08,0.16
		c-0.24-0.07-0.67-0.5-1.13-0.95c-0.67-0.66-1.53-1.51-2.56-2.03c1.13-0.46,2.13-1.07,2.86-1.85c0.94-1.02,1.69-1.88,2.28-2.65
		C69.77,12.16,70.84,12.49,71.54,13.21z M49.84,3.76H65.8c0.04,0,4.29,0.17,4.23,2.69c-0.04,1.98-0.44,3.31-1.85,5.19
		c-0.03,0-0.06,0.01-0.09,0.01l0.01,0.08c-0.59,0.79-1.36,1.66-2.34,2.73c-3.39,3.67-13.51,3.08-13.61,3.07l-0.02,0
		c-3.85,0-6.56-0.76-8.04-2.25c-1.48-1.49-1.46-3.45-1.45-4.74l0-0.33C42.67,8.19,44.47,3.76,49.84,3.76z M41.24,7.08
		c0.52,0,1.02,0.08,1.51,0.22c-0.53,1.08-0.77,2.15-0.77,2.91l0,0.32c-0.01,1.32-0.03,3.53,1.65,5.23c0.25,0.26,0.55,0.49,0.87,0.7
		c-0.92,0.73-2.06,1.13-3.25,1.13c-2.9,0-5.26-2.36-5.26-5.26C35.98,9.44,38.34,7.08,41.24,7.08z M35.82,38.59l-0.03-0.2V14.71
		c0.92,2.1,3.01,3.58,5.45,3.58c1.43,0,2.79-0.51,3.87-1.44c1.67,0.91,4.03,1.37,7.04,1.37c0.14,0.01,0.81,0.05,1.8,0.05
		c2.09,0,5.6-0.17,8.53-1.13c1.2,0.36,2.21,1.36,3.03,2.17c0.56,0.56,1.01,1,1.38,1.11c0.3,0.13,0.62,0.22,0.94,0.27v17.59
		l-0.03,0.32c-0.51,8.43-7.53,15.03-15.98,15.03S36.33,47.02,35.82,38.59z M45.88,54.88l0-1.66c1.85,0.7,3.84,1.09,5.93,1.09
		c2.07,0,4.06-0.38,5.89-1.08v5.4l-0.01,0.31c-0.12,3.19-2.71,5.68-5.9,5.68c-3.19,0-5.78-2.5-5.9-5.68l-0.01-3.68
		c0.03-0.01,0.05-0.01,0.08-0.02L45.88,54.88z M24.25,81.83c0.16-12.48,8.87-23.42,20.93-26.4v3.53l0.01,0.34h0.02
		c0.3,3.4,3.12,6.02,6.57,6.02c3.45,0,6.27-2.62,6.57-6.02l0.02-3.89c12.25,2.99,20.83,13.8,20.98,26.42H24.25z"/>
	<path class="st2" d="M58.42,39.78v-0.39l-0.39,0.05c-3.09,0.41-6.2-0.32-8.7-0.9c-2.39-0.56-4.12-0.97-5.03-0.24
		c-0.39,0.31-0.59,0.81-0.59,1.49c0,4.06,3.3,7.36,7.36,7.36S58.42,43.83,58.42,39.78z M51.07,46.45c-3.68,0-6.67-2.99-6.67-6.67
		c0-0.46,0.11-0.77,0.33-0.95c0.22-0.17,0.55-0.24,0.97-0.24c0.87,0,2.11,0.29,3.47,0.61c2.45,0.57,5.47,1.28,8.55,0.96
		C57.52,43.66,54.61,46.45,51.07,46.45z"/>
	<path class="st2" d="M47.32,29.95c0,0.19,0.15,0.34,0.34,0.34s0.34-0.15,0.34-0.34c0-1.66-1.35-3.02-3.02-3.02
		s-3.02,1.35-3.02,3.02c0,0.19,0.15,0.34,0.34,0.34s0.34-0.15,0.34-0.34c0-1.28,1.04-2.33,2.33-2.33
		C46.28,27.62,47.32,28.66,47.32,29.95z"/>
	<path class="st2" d="M55.24,30.29c0.19,0,0.34-0.15,0.34-0.34c0-1.28,1.04-2.33,2.33-2.33s2.33,1.04,2.33,2.33
		c0,0.19,0.15,0.34,0.34,0.34s0.34-0.15,0.34-0.34c0-1.66-1.35-3.02-3.02-3.02s-3.02,1.35-3.02,3.02
		C54.89,30.14,55.05,30.29,55.24,30.29z"/>
	<polygon class="st0" points="19.97,21.88 18.12,21.88 18.12,20.03 16.55,20.03 16.55,21.88 14.7,21.88 14.7,23.45 16.55,23.45 
		16.55,25.3 18.12,25.3 18.12,23.45 19.97,23.45 	"/>
	<polygon class="st0" points="88.64,21.88 86.79,21.88 86.79,20.03 85.22,20.03 85.22,21.88 83.37,21.88 83.37,23.45 85.22,23.45 
		85.22,25.3 86.79,25.3 86.79,23.45 88.64,23.45 	"/>
	<polygon class="st0" points="14.6,59.27 12.75,59.27 12.75,60.84 14.6,60.84 14.6,62.69 16.17,62.69 16.17,60.84 18.02,60.84 
		18.02,59.27 16.17,59.27 16.17,57.42 14.6,57.42 	"/>
	<rect x="30.19" y="52.29" class="st0" width="1.57" height="1.57"/>
	<rect x="24.6" y="35.59" class="st0" width="1.57" height="1.57"/>
	<rect x="75.22" y="35.59" class="st0" width="1.57" height="1.57"/>
	<rect x="33.33" y="52.29" class="st0" width="1.57" height="1.57"/>
	<polygon class="st0" points="89.72,56.74 88.15,56.74 88.15,58.59 86.3,58.59 86.3,60.16 88.15,60.16 88.15,62.01 89.72,62.01 
		89.72,60.16 91.57,60.16 91.57,58.59 89.72,58.59 	"/>
	<rect x="72.56" y="51.61" class="st0" width="1.57" height="1.57"/>
	<rect x="69.43" y="51.61" class="st0" width="1.57" height="1.57"/>
</g>
<g>
	<g>
		<polygon class="st0" points="96.85,2.97 96.85,5.79 94.03,5.79 94.03,8.18 96.85,8.18 96.85,10.99 99.24,10.99 99.24,8.18 
			102.06,8.18 102.06,5.79 99.24,5.79 99.24,2.97 		"/>
		<polygon class="st0" points="102.06,77.41 99.24,77.41 99.24,74.59 96.85,74.59 96.85,77.41 94.03,77.41 94.03,79.8 96.85,79.8 
			96.85,82.62 99.24,82.62 99.24,79.8 102.06,79.8 		"/>
		<polygon class="st0" points="7.47,82.62 7.47,79.8 10.29,79.8 10.29,77.41 7.47,77.41 7.47,74.59 5.08,74.59 5.08,77.41 
			2.26,77.41 2.26,79.8 5.08,79.8 5.08,82.62 		"/>
		<polygon class="st0" points="2.26,8.18 5.08,8.18 5.08,10.99 7.47,10.99 7.47,8.18 10.29,8.18 10.29,5.79 7.47,5.79 7.47,2.97 
			5.08,2.97 5.08,5.79 2.26,5.79 		"/>
	</g>
</g>
</svg>
