<?xml version="1.0" encoding="utf-8"?>
<!-- Generator: Adobe Illustrator 23.1.1, SVG Export Plug-In . SVG Version: 6.00 Build 0)  -->
<svg version="1.1" id="Capa_1" xmlns="http://www.w3.org/2000/svg" xmlns:xlink="http://www.w3.org/1999/xlink" x="0px" y="0px"
	 viewBox="0 0 104.32 85.59" style="enable-background:new 0 0 104.32 85.59;" xml:space="preserve">
<style type="text/css">
	.st0{fill:#DADADA;}
	.st1{fill:#DADADA;stroke:#DADADA;stroke-miterlimit:10;}
	.st2{fill:#DADADA;stroke:#DADADA;stroke-width:2;stroke-miterlimit:10;}
</style>
<g>
	<polygon class="st0" points="99.67,0.41 99.67,2.54 97.54,2.54 97.54,4.35 99.67,4.35 99.67,6.48 101.48,6.48 101.48,4.35 
		103.61,4.35 103.61,2.54 101.48,2.54 101.48,0.41 	"/>
	<polygon class="st0" points="42.19,13.54 42.19,11.4 44.32,11.4 44.32,9.59 42.19,9.59 42.19,7.46 40.38,7.46 40.38,9.59 
		38.25,9.59 38.25,11.4 40.38,11.4 40.38,13.54 	"/>
	<polygon class="st0" points="4.65,2.96 4.65,0.82 2.84,0.82 2.84,2.96 0.71,2.96 0.71,4.76 2.84,4.76 2.84,6.9 4.65,6.9 4.65,4.76 
		6.78,4.76 6.78,2.96 	"/>
	<rect x="80.61" y="13.63" class="st0" width="1.81" height="1.81"/>
	<rect x="80.61" y="20.87" class="st0" width="1.81" height="1.81"/>
	<rect x="80.61" y="17.25" class="st0" width="1.81" height="1.81"/>
	<rect x="15.01" y="12.53" class="st0" width="1.81" height="1.81"/>
	<rect x="15.01" y="16.15" class="st0" width="1.81" height="1.81"/>
	<rect x="15.01" y="19.77" class="st0" width="1.81" height="1.81"/>
	<polygon class="st0" points="103.61,80.82 101.48,80.82 101.48,78.68 99.67,78.68 99.67,80.82 97.54,80.82 97.54,82.62 
		99.67,82.62 99.67,84.76 101.48,84.76 101.48,82.62 103.61,82.62 	"/>
	<polygon class="st0" points="44.32,68.71 42.19,68.71 42.19,66.57 40.38,66.57 40.38,68.71 38.25,68.71 38.25,70.51 40.38,70.51 
		40.38,72.65 42.19,72.65 42.19,70.51 44.32,70.51 	"/>
	<polygon class="st0" points="2.52,82.6 2.52,84.73 4.33,84.73 4.33,82.6 6.46,82.6 6.46,80.79 4.33,80.79 4.33,78.66 2.52,78.66 
		2.52,80.79 0.38,80.79 0.38,82.6 	"/>
	<rect x="80.61" y="64.09" class="st0" width="1.81" height="1.81"/>
	<rect x="57.12" y="67.69" class="st0" width="1.81" height="1.81"/>
	<rect x="57.12" y="10.02" class="st0" width="1.81" height="1.81"/>
	<rect x="80.61" y="60.47" class="st0" width="1.81" height="1.81"/>
	<rect x="80.61" y="56.86" class="st0" width="1.81" height="1.81"/>
	<rect x="14.93" y="73.39" class="st0" width="1.81" height="1.81"/>
	<rect x="14.93" y="66.15" class="st0" width="1.81" height="1.81"/>
	<rect x="14.93" y="69.77" class="st0" width="1.81" height="1.81"/>
	<g>
		<path class="st0" d="M91.18,26.95c-0.47-0.68-1.41-0.86-2.09-0.38c-0.68,0.47-0.86,1.41-0.38,2.09c2,2.9,3.06,6.41,3.06,10.13
			c0,3.71-1.11,7.33-3.12,10.21c-0.48,0.68-0.31,1.62,0.37,2.1c0.26,0.18,0.56,0.27,0.86,0.27c0.48,0,0.94-0.22,1.24-0.64
			c2.39-3.43,3.66-7.55,3.66-11.94C94.77,34.45,93.53,30.36,91.18,26.95z"/>
		<path class="st0" d="M86.23,31.2c-0.47-0.69-1.41-0.86-2.09-0.39c-0.68,0.47-0.86,1.41-0.38,2.09c1.16,1.69,1.78,3.72,1.78,5.89
			c0,2.16-0.64,4.27-1.81,5.94c-0.48,0.68-0.31,1.62,0.37,2.1c0.26,0.18,0.56,0.27,0.86,0.27c0.48,0,0.94-0.22,1.24-0.64
			c1.54-2.2,2.35-4.85,2.35-7.66C88.54,36.02,87.74,33.4,86.23,31.2z"/>
		<path class="st0" d="M95.79,22.86c-0.47-0.74-1.47-0.9-2.13-0.33l0,0c-0.53,0.46-0.62,1.24-0.24,1.83
			c2.75,4.31,4.34,9.42,4.34,14.91c0,5.27-1.46,10.2-4.02,14.41c-0.36,0.59-0.26,1.35,0.26,1.8c0.65,0.57,1.67,0.44,2.12-0.3
			c2.83-4.65,4.47-10.09,4.47-15.92C100.57,33.23,98.82,27.61,95.79,22.86z"/>
		<path class="st0" d="M73.98,14.07c-0.85-0.46-1.88-0.43-2.7,0.1c-11.46,7.34-24.06,12.11-37.46,14.21
			c-0.6-1.35-1.94-2.29-3.5-2.29H17.69c-2,0-3.63,1.54-3.8,3.5h-1.58c-1.85,0-3.36,1.51-3.36,3.36v13.89c0,1.85,1.51,3.36,3.36,3.36
			h1.58c0.18,1.95,1.8,3.5,3.8,3.5h1.06l2.89,14.34c0.61,3.04,2.35,5.67,4.9,7.43l0.13,0.09c0.4,0.28,0.87,0.42,1.34,0.42
			c0.38,0,0.75-0.09,1.1-0.27c0.78-0.41,1.27-1.21,1.27-2.09V53.69c1.53-0.02,2.85-0.96,3.44-2.28c13.41,2.09,26,6.86,37.46,14.21
			c0.44,0.28,0.94,0.42,1.44,0.42c0.44,0,0.87-0.11,1.27-0.32c0.85-0.46,1.37-1.35,1.37-2.31V16.38
			C75.35,15.42,74.83,14.53,73.98,14.07z M13.27,47.05h-0.96c-0.12,0-0.21-0.1-0.21-0.21V32.94c0-0.12,0.1-0.21,0.21-0.21h0.96
			V47.05z M27.23,71.97c-1.27-1.22-2.15-2.8-2.5-4.56L21.96,53.7h5.26V71.97z M30.32,50.54h-12.2h-0.42c-0.38,0-0.68-0.31-0.68-0.69
			V29.92c0-0.38,0.3-0.68,0.68-0.68h12.62c0.38,0,0.68,0.3,0.68,0.68v19.93C31,50.23,30.69,50.54,30.32,50.54z M72.2,62.47
			c-11.67-7.33-24.46-12.11-38.05-14.21V31.52c13.59-2.1,26.38-6.87,38.05-14.21V62.47z"/>
	</g>
</g>
</svg>
