<?xml version="1.0" encoding="utf-8"?>
<!-- Generator: Adobe Illustrator 23.1.1, SVG Export Plug-In . SVG Version: 6.00 Build 0)  -->
<svg version="1.1" id="Capa_1" xmlns="http://www.w3.org/2000/svg" xmlns:xlink="http://www.w3.org/1999/xlink" x="0px" y="0px"
	 viewBox="0 0 104.32 85.59" style="enable-background:new 0 0 104.32 85.59;" xml:space="preserve">
<style type="text/css">
	.st0{fill:#DADADA;}
	.st1{fill:#DADADA;stroke:#DADADA;stroke-miterlimit:10;}
	.st2{fill:#DADADA;stroke:#DADADA;stroke-width:2;stroke-miterlimit:10;}
</style>
<g>
	<path class="st0" d="M63.93,68.2H41.26l-1.38,8.16h25.43L63.93,68.2z M41.94,74.62l0.79-4.67h19.72l0.79,4.67H41.94z"/>
	<path class="st0" d="M46.09,50.61L46.77,49c-3.61-1.53-6.04-4.8-6.35-8.52l-1.74,0.15C39.05,45,41.88,48.82,46.09,50.61z"/>
	<path class="st0" d="M48.52,51.36c0.83,0.17,1.67,0.25,2.52,0.25v-1.74c-0.73,0-1.46-0.07-2.17-0.22L48.52,51.36z"/>
	<path class="st0" d="M68.09,23.42l-1.72-0.27c-0.73,4.63-1.22,9.3-1.45,13.9l1.74,0.09C66.89,32.6,67.37,27.98,68.09,23.42z"/>
	<path class="st0" d="M68.85,19.06l-1.71-0.33c-0.16,0.85-0.32,1.69-0.46,2.54l1.72,0.3C68.54,20.73,68.69,19.89,68.85,19.06z"/>
	<path class="st1" d="M18.5,22.23c2.71,9.76,9,17.92,17.73,23.01c1.9,4.73,6.15,8.31,11.27,9.46c0.5,3.3-0.4,6.67-2.68,10.02h-6.51
		l-2.27,13.39H33.6v6.55h37.98v-6.55h-2.44l-2.27-13.39h-6.52c-2.27-3.34-3.17-6.71-2.67-10.02c5.17-1.17,9.44-4.8,11.32-9.59
		c8.61-5.09,14.83-13.2,17.51-22.87l2.56-9.25H73.77c0.42-1.69,0.86-3.38,1.34-5.07h3.56V0.93H26.52v6.98h3.56
		c0.48,1.69,0.93,3.38,1.34,5.07H15.94L18.5,22.23z M69.84,79.85v3.06H35.35v-3.06h0.4h33.69L69.84,79.85L69.84,79.85z M67.38,78.11
		H37.82l1.97-11.65H65.4L67.38,78.11z M35.02,36.99c-5.13-4.24-8.89-9.99-10.66-16.38l-0.42-1.54h8.85
		C33.96,25.05,34.7,31.04,35.02,36.99z M58.27,64.71H46.92c1.95-3.22,2.74-6.48,2.39-9.71c0.57,0.06,1.15,0.1,1.74,0.1h3.11
		c0.59,0,1.17-0.04,1.74-0.1C55.54,58.24,56.33,61.5,58.27,64.71z M72.41,19.06h8.68l-0.42,1.54c-1.75,6.32-5.45,12.01-10.49,16.24
		C70.5,30.94,71.24,25,72.41,19.06z M86.79,14.73l-1.95,7.04c-2.39,8.62-7.72,15.93-15.1,20.82c0.11-0.55,0.2-1.1,0.24-1.67
		c0.03-0.32,0.05-0.65,0.06-0.98c0.01-0.26,0.03-0.52,0.04-0.79c5.93-4.53,10.28-10.93,12.27-18.09l1.03-3.75H72.78
		c0.18-0.86,0.37-1.73,0.57-2.59H86.79z M28.27,6.17V2.68h48.66v3.49C61.22,6.17,43.69,6.17,28.27,6.17z M73.29,7.91
		c-0.27,0.95-0.51,1.89-0.76,2.84h-28.7v1.74h28.25c-2.25,9.13-3.53,18.33-3.78,27.4c-0.2,7.72-6.73,13.47-14.15,13.47h-3.11
		c-7.31,0-13.51-5.53-14.1-12.59c-0.16-1.85-0.03-12.86-3.83-28.28h4.25v-1.74h-4.7c-0.25-0.95-0.49-1.9-0.76-2.84L73.29,7.91z
		 M32.41,17.32H21.64l1.03,3.75c2,7.23,6.42,13.69,12.44,18.22c0.01,0.22,0.02,0.43,0.03,0.65c0.01,0.33,0.03,0.66,0.06,0.98
		c0.05,0.61,0.15,1.21,0.28,1.8C28,37.83,22.6,30.46,20.19,21.76l-1.95-7.04h13.61C32.05,15.59,32.23,16.45,32.41,17.32z"/>
	<rect x="38.95" y="10.75" class="st0" width="3.04" height="1.74"/>
	<rect x="20.26" y="4.95" class="st0" width="1.74" height="1.74"/>
	<rect x="16.77" y="4.95" class="st0" width="1.74" height="1.74"/>
	<rect x="13.28" y="4.95" class="st0" width="1.74" height="1.74"/>
	<rect x="90.16" y="4.95" class="st0" width="1.74" height="1.74"/>
	<rect x="86.67" y="4.95" class="st0" width="1.74" height="1.74"/>
	<rect x="83.18" y="4.95" class="st0" width="1.74" height="1.74"/>
	<polygon class="st0" points="12.42,39.22 14.47,39.22 14.47,41.27 16.22,41.27 16.22,39.22 18.27,39.22 18.27,37.47 16.22,37.47 
		16.22,35.42 14.47,35.42 14.47,37.47 12.42,37.47 	"/>
	<polygon class="st0" points="32.73,56.54 30.68,56.54 30.68,54.48 28.93,54.48 28.93,56.54 26.88,56.54 26.88,58.28 28.93,58.28 
		28.93,60.34 30.68,60.34 30.68,58.28 32.73,58.28 	"/>
	<rect x="16.29" y="48.63" class="st0" width="1.74" height="1.74"/>
	<rect x="23.27" y="48.63" class="st0" width="1.74" height="1.74"/>
	<rect x="19.78" y="48.63" class="st0" width="1.74" height="1.74"/>
	<rect x="22.12" y="66.46" class="st0" width="1.74" height="1.74"/>
	<rect x="25.61" y="66.46" class="st0" width="1.74" height="1.74"/>
	<rect x="29.1" y="66.46" class="st0" width="1.74" height="1.74"/>
	<polygon class="st0" points="87.88,35.42 87.88,37.47 85.82,37.47 85.82,39.22 87.88,39.22 87.88,41.27 89.62,41.27 89.62,39.22 
		91.68,39.22 91.68,37.47 89.62,37.47 89.62,35.42 	"/>
	<polygon class="st0" points="73.42,54.48 73.42,56.54 71.36,56.54 71.36,58.28 73.42,58.28 73.42,60.34 75.16,60.34 75.16,58.28 
		77.22,58.28 77.22,56.54 75.16,56.54 75.16,54.48 	"/>
	<rect x="86.06" y="48.63" class="st0" width="1.74" height="1.74"/>
	<rect x="82.57" y="48.63" class="st0" width="1.74" height="1.74"/>
	<rect x="79.09" y="48.63" class="st0" width="1.74" height="1.74"/>
	<rect x="80.23" y="66.46" class="st0" width="1.74" height="1.74"/>
	<rect x="73.25" y="66.46" class="st0" width="1.74" height="1.74"/>
	<rect x="76.74" y="66.46" class="st0" width="1.74" height="1.74"/>
	<path class="st0" d="M48,29.51l-2.01,6.19c-0.12,0.36,0.01,0.75,0.32,0.98c0.15,0.11,0.33,0.17,0.51,0.17s0.36-0.06,0.51-0.17
		l5.26-3.83l5.26,3.83c0.31,0.22,0.72,0.22,1.03,0c0.31-0.22,0.43-0.62,0.32-0.98l-2.01-6.19l5.26-3.82
		c0.31-0.22,0.43-0.62,0.32-0.98c-0.12-0.36-0.45-0.6-0.83-0.6h-6.51l-2.01-6.19c-0.12-0.36-0.45-0.6-0.83-0.6s-0.71,0.24-0.83,0.6
		l-2.01,6.19h-6.51c-0.38,0-0.71,0.24-0.83,0.6c-0.12,0.36,0.01,0.75,0.32,0.98L48,29.51z M50.39,25.85c0.38,0,0.71-0.24,0.83-0.6
		l1.38-4.24l1.38,4.24c0.12,0.36,0.45,0.6,0.83,0.6h4.46l-3.61,2.62c-0.31,0.22-0.43,0.62-0.32,0.98l1.38,4.24l-3.61-2.62
		c-0.15-0.11-0.33-0.17-0.51-0.17c-0.18,0-0.36,0.06-0.51,0.17l-3.6,2.62l1.38-4.24c0.12-0.36-0.01-0.75-0.32-0.98l-3.61-2.62
		L50.39,25.85L50.39,25.85z"/>
</g>
<polygon class="st0" points="102.89,79.73 100.31,79.73 100.31,77.14 98.12,77.14 98.12,79.73 95.53,79.73 95.53,81.92 98.12,81.92 
	98.12,84.51 100.31,84.51 100.31,81.92 102.89,81.92 "/>
<polygon class="st0" points="6,83.9 6,81.32 8.59,81.32 8.59,79.12 6,79.12 6,76.54 3.81,76.54 3.81,79.12 1.22,79.12 1.22,81.32 
	3.81,81.32 3.81,83.9 "/>
</svg>
