<?xml version="1.0" encoding="utf-8"?>
<!-- Generator: Adobe Illustrator 23.1.1, SVG Export Plug-In . SVG Version: 6.00 Build 0)  -->
<svg version="1.1" id="Capa_1" xmlns="http://www.w3.org/2000/svg" xmlns:xlink="http://www.w3.org/1999/xlink" x="0px" y="0px"
	 viewBox="0 0 104.32 85.59" style="enable-background:new 0 0 104.32 85.59;" xml:space="preserve">
<style type="text/css">
	.st0{fill:#DADADA;}
	.st1{fill:#DADADA;stroke:#DADADA;stroke-miterlimit:10;}
	.st2{fill:#DADADA;stroke:#DADADA;stroke-width:2;stroke-miterlimit:10;}
</style>
<g transform="translate(0,-952.36218)">
	<path class="st0" d="M52.12,953.89c-0.91,0-1.65,0.74-1.65,1.65v6.62c0,0.91,0.74,1.65,1.65,1.65c0.91,0,1.65-0.74,1.65-1.65v-6.62
		C53.77,954.63,53.03,953.89,52.12,953.89z M28.72,963.58c-0.42,0-0.84,0.17-1.16,0.49c-0.65,0.65-0.65,1.68,0,2.33l4.68,4.68
		c0.65,0.65,1.68,0.65,2.33,0c0.65-0.65,0.65-1.68,0-2.33l-4.68-4.68C29.56,963.75,29.14,963.58,28.72,963.58z M75.52,963.58
		c-0.42,0-0.84,0.17-1.16,0.49l-4.68,4.68c-0.65,0.65-0.65,1.68,0,2.33c0.65,0.65,1.68,0.65,2.33,0l4.68-4.68
		c0.65-0.65,0.65-1.68,0-2.33C76.36,963.75,75.94,963.58,75.52,963.58z M52.12,967.13c-10.95,0-21.51,8.51-21.51,20.56
		c0,7.6,2.96,12.42,5.69,16.29c2.73,3.87,5.07,6.71,5.07,11.14v9.93c0,2.81,2.33,4.96,4.96,4.96h0.83c0,2.72,2.24,4.96,4.96,4.96
		c2.72,0,4.96-2.24,4.96-4.96h0.83c2.64,0,4.96-2.16,4.96-4.96v-9.93c0-4.44,2.34-7.28,5.07-11.14c2.73-3.87,5.69-8.69,5.69-16.29
		C73.63,975.64,63.06,967.13,52.12,967.13z M52.12,970.43c9.23,0,18.2,7.15,18.2,17.25c0,6.77-2.42,10.63-5.07,14.38
		c-2.38,3.36-5.06,6.69-5.59,11.4h-15.1c-0.53-4.71-3.21-8.04-5.59-11.4c-2.65-3.75-5.07-7.61-5.07-14.38
		C33.91,977.58,42.88,970.43,52.12,970.43z M19.02,986.98c-0.91,0-1.65,0.74-1.65,1.65s0.74,1.65,1.65,1.65h6.62
		c0.91,0,1.65-0.74,1.65-1.65s-0.74-1.65-1.65-1.65H19.02z M78.59,986.98c-0.91,0-1.65,0.74-1.65,1.65s0.74,1.65,1.65,1.65h6.62
		c0.91,0,1.65-0.74,1.65-1.65s-0.74-1.65-1.65-1.65H78.59z M44.67,1016.77h14.89v3.31H44.67V1016.77z M44.67,1023.39h14.89v1.65
		c0,0.99-0.8,1.65-1.65,1.65H46.32c-0.86,0-1.65-0.66-1.65-1.65V1023.39z M50.46,1030.01h3.31c0,0.95-0.71,1.65-1.65,1.65
		S50.46,1030.96,50.46,1030.01z"/>
	<polygon class="st0" points="98.12,953.19 98.12,955.77 95.53,955.77 95.53,957.97 98.12,957.97 98.12,960.55 100.31,960.55 
		100.31,957.97 102.89,957.97 102.89,955.77 100.31,955.77 100.31,953.19 	"/>
	<polygon class="st0" points="102.89,1032.09 100.31,1032.09 100.31,1029.5 98.12,1029.5 98.12,1032.09 95.53,1032.09 
		95.53,1034.28 98.12,1034.28 98.12,1036.87 100.31,1036.87 100.31,1034.28 102.89,1034.28 	"/>
	<rect x="72.61" y="1027.8" class="st0" width="2.19" height="2.19"/>
	<rect x="72.61" y="1023.42" class="st0" width="2.19" height="2.19"/>
	<rect x="72.61" y="1019.03" class="st0" width="2.19" height="2.19"/>
	<polygon class="st0" points="6,1036.27 6,1033.68 8.59,1033.68 8.59,1031.49 6,1031.49 6,1028.9 3.81,1028.9 3.81,1031.49 
		1.22,1031.49 1.22,1033.68 3.81,1033.68 3.81,1036.27 	"/>
	<rect x="29.52" y="1027.8" class="st0" width="2.19" height="2.19"/>
	<rect x="29.52" y="1019.03" class="st0" width="2.19" height="2.19"/>
	<rect x="29.52" y="1023.42" class="st0" width="2.19" height="2.19"/>
	<polygon class="st0" points="1.22,957.97 3.81,957.97 3.81,960.55 6,960.55 6,957.97 8.59,957.97 8.59,955.77 6,955.77 6,953.19 
		3.81,953.19 3.81,955.77 1.22,955.77 	"/>
	<g>
		<rect x="8.04" y="987.71" class="st0" width="2.59" height="2.59"/>
		<rect x="8.04" y="992.88" class="st0" width="2.59" height="2.59"/>
		<rect x="8.04" y="998.05" class="st0" width="2.59" height="2.59"/>
	</g>
	<g>
		<rect x="94.24" y="987.71" class="st0" width="2.59" height="2.59"/>
		<rect x="94.24" y="992.88" class="st0" width="2.59" height="2.59"/>
		<rect x="94.24" y="998.05" class="st0" width="2.59" height="2.59"/>
	</g>
	<polygon class="st0" points="51.28,978.51 42.56,992.68 52.49,992.68 52.12,1003.57 61.68,989.53 50.31,989.53 	"/>
</g>
</svg>
