<?xml version="1.0" encoding="utf-8"?>
<!-- Generator: Adobe Illustrator 23.1.1, SVG Export Plug-In . SVG Version: 6.00 Build 0)  -->
<svg version="1.1" id="Capa_1" xmlns="http://www.w3.org/2000/svg" xmlns:xlink="http://www.w3.org/1999/xlink" x="0px" y="0px"
	 viewBox="0 0 104.32 85.59" style="enable-background:new 0 0 104.32 85.59;" xml:space="preserve">
<style type="text/css">
	.st0{fill:#DADADA;}
	.st1{fill:#DADADA;stroke:#DADADA;stroke-miterlimit:10;}
	.st2{fill:#DADADA;stroke:#DADADA;stroke-width:2;stroke-miterlimit:10;}
</style>
<g>
	<path class="st0" d="M40.09,25.41c-3.22,3.21-5.02,7.57-5,12.11c0,0.73,0.59,1.31,1.31,1.31h7.88v1.31c0,0.73,0.59,1.31,1.31,1.31
		h2.12l-0.74,2.21c-0.23,0.69,0.14,1.43,0.83,1.66c0.13,0.04,0.27,0.07,0.42,0.07h7.88c0.73,0,1.31-0.59,1.31-1.31
		c0-0.14-0.02-0.28-0.07-0.42l-0.74-2.21h2.12c0.73,0,1.31-0.59,1.31-1.31v-1.31h7.88c0.73,0,1.31-0.59,1.31-1.31v-0.63
		c0-4.99-2.18-9.72-5.96-12.97l-3.23-2.77v-3.07c0.01-3.01-0.94-5.95-2.69-8.4l-4.12-5.77c-0.47-0.59-1.32-0.69-1.91-0.23
		c-0.08,0.07-0.16,0.14-0.23,0.23l-4.12,5.77c-1.76,2.45-2.7,5.39-2.69,8.4v3.13L40.09,25.41z M37.77,36.21
		c0.29-3.38,1.77-6.55,4.18-8.94l2.34-2.34v11.28H37.77z M57.41,18.09v15.49H46.91V18.09c0-0.09,0.02-0.18,0.02-0.27h10.47
		C57.4,17.91,57.41,18,57.41,18.09z M54.28,42.78h-4.24l0.44-1.31h3.36L54.28,42.78z M57.41,38.84H46.91v-2.63h10.51V38.84z
		 M61.56,25.92c3.02,2.59,4.84,6.31,5.03,10.29h-6.55V24.62L61.56,25.92z M52.16,6.94l3.05,4.27c0.85,1.2,1.46,2.55,1.81,3.98H47.3
		c0.35-1.43,0.96-2.78,1.81-3.98L52.16,6.94z"/>
	<path class="st0" d="M52.16,28.33c2.18,0,3.94-1.76,3.94-3.94s-1.76-3.94-3.94-3.94c-2.18,0-3.94,1.76-3.94,3.94
		S49.98,28.33,52.16,28.33z M52.16,23.07c0.73,0,1.31,0.59,1.31,1.31s-0.59,1.31-1.31,1.31c-0.73,0-1.31-0.59-1.31-1.31
		S51.43,23.07,52.16,23.07z"/>
	<path class="st0" d="M87.63,20.45H63.98v2.63h23.64c0.73,0,1.31,0.59,1.31,1.31v21.49c-2.92,0.69-5.6,2.14-7.77,4.2
		c-5.4-1.99-11.45,0.21-14.31,5.21c-0.89-0.45-1.88-0.68-2.88-0.68c-3.12,0-5.81,2.2-6.44,5.25H45.59c0-4.35-3.53-7.88-7.88-7.88
		c-0.48,0-0.95,0.04-1.42,0.13c-0.65-3.57-4.08-5.93-7.64-5.28c-1.2,0.22-2.32,0.77-3.23,1.6c-2.78-2.5-6.31-4-10.04-4.28V24.39
		c0-0.73,0.59-1.31,1.31-1.31h23.64v-2.63H16.69c-2.18,0-3.94,1.76-3.94,3.94v42.04c0,2.18,1.76,3.94,3.94,3.94h28.9v3.94h-5.25
		c-0.73,0-1.31,0.59-1.31,1.31v3.94H36.4v2.63h31.53v-2.63H65.3v-3.94c0-0.73-0.59-1.31-1.31-1.31h-5.25v-3.94h28.9
		c2.18,0,3.94-1.76,3.94-3.94V24.39C91.57,22.21,89.8,20.45,87.63,20.45z M63.98,57.23c0.94,0.01,1.84,0.35,2.55,0.97
		c0.55,0.47,1.38,0.41,1.85-0.14c0.09-0.11,0.16-0.23,0.22-0.36c1.9-4.69,7.25-6.96,11.94-5.06c0.13,0.05,0.26,0.11,0.39,0.17
		c0.51,0.23,1.11,0.12,1.49-0.29c1.78-1.87,4.03-3.23,6.51-3.93v11.26H60.28C60.84,58.28,62.32,57.23,63.98,57.23z M24.54,51.23
		c0.27,0.29,0.66,0.44,1.05,0.4c0.4-0.03,0.76-0.24,0.98-0.57c1.22-1.8,3.67-2.27,5.47-1.05c1.08,0.73,1.73,1.96,1.73,3.27
		c0,0.08-0.01,0.16-0.02,0.24l-0.03,0.2c-0.08,0.72,0.44,1.37,1.16,1.45c0.23,0.03,0.46-0.01,0.68-0.11
		c2.63-1.2,5.73-0.04,6.93,2.59c0.31,0.69,0.48,1.44,0.47,2.2H15.38V46.78C18.87,47.09,22.13,48.68,24.54,51.23z M62.67,79.56H41.65
		v-2.63h21.02V79.56z M56.1,74.3h-7.88v-3.94h7.88V74.3z M87.63,67.74H16.69c-0.73,0-1.31-0.59-1.31-1.31v-3.94h73.56v3.94
		C88.94,67.15,88.35,67.74,87.63,67.74z"/>
	<polygon class="st0" points="40.44,13.64 38.58,13.64 38.58,11.78 37,11.78 37,13.64 35.14,13.64 35.14,15.22 37,15.22 37,17.08 
		38.58,17.08 38.58,15.22 40.44,15.22 	"/>
	<polygon class="st0" points="22.45,35.88 20.59,35.88 20.59,37.46 22.45,37.46 22.45,39.32 24.03,39.32 24.03,37.46 25.89,37.46 
		25.89,35.88 24.03,35.88 24.03,34.02 22.45,34.02 	"/>
	<rect x="24.87" y="78.53" class="st0" width="1.58" height="1.58"/>
	<rect x="31.18" y="78.53" class="st0" width="1.58" height="1.58"/>
	<rect x="28.03" y="78.53" class="st0" width="1.58" height="1.58"/>
	<rect x="28.07" y="28.86" class="st0" width="1.58" height="1.58"/>
	<rect x="31.23" y="28.86" class="st0" width="1.58" height="1.58"/>
	<polygon class="st0" points="64.05,15.22 65.91,15.22 65.91,17.08 67.49,17.08 67.49,15.22 69.35,15.22 69.35,13.64 67.49,13.64 
		67.49,11.78 65.91,11.78 65.91,13.64 64.05,13.64 	"/>
	<polygon class="st0" points="82.04,34.02 80.47,34.02 80.47,35.88 78.6,35.88 78.6,37.46 80.47,37.46 80.47,39.32 82.04,39.32 
		82.04,37.46 83.91,37.46 83.91,35.88 82.04,35.88 	"/>
	<rect x="78.05" y="78.53" class="st0" width="1.58" height="1.58"/>
	<rect x="71.73" y="78.53" class="st0" width="1.58" height="1.58"/>
	<rect x="74.89" y="78.53" class="st0" width="1.58" height="1.58"/>
	<rect x="74.85" y="28.86" class="st0" width="1.58" height="1.58"/>
	<rect x="71.69" y="28.86" class="st0" width="1.58" height="1.58"/>
	<path class="st0" d="M48.22,50.66c0,1.68,2,4.76,2.86,6c0.41,0.6,1.23,0.75,1.83,0.33c0.13-0.09,0.24-0.2,0.33-0.33
		c0.86-1.24,2.86-4.32,2.86-6c0-2.18-1.76-3.94-3.94-3.94C49.98,46.72,48.22,48.48,48.22,50.66z M53.47,50.66
		c-0.28,1-0.73,1.96-1.31,2.82c-0.59-0.86-1.03-1.82-1.31-2.82c0-0.73,0.59-1.31,1.31-1.31C52.89,49.35,53.47,49.93,53.47,50.66z"/>
	<rect x="61.36" y="40.15" class="st0" width="2.63" height="5.25"/>
	<rect x="65.3" y="40.15" class="st0" width="2.63" height="2.63"/>
	<rect x="40.34" y="40.15" class="st0" width="2.63" height="5.25"/>
	<rect x="36.4" y="40.15" class="st0" width="2.63" height="2.63"/>
</g>
<polygon class="st0" points="96.85,2.97 96.85,5.79 94.03,5.79 94.03,8.18 96.85,8.18 96.85,10.99 99.24,10.99 99.24,8.18 
	102.06,8.18 102.06,5.79 99.24,5.79 99.24,2.97 "/>
<polygon class="st0" points="2.26,8.18 5.08,8.18 5.08,10.99 7.47,10.99 7.47,8.18 10.29,8.18 10.29,5.79 7.47,5.79 7.47,2.97 
	5.08,2.97 5.08,5.79 2.26,5.79 "/>
</svg>
